<?xml version="1.0" encoding="utf-8"?>
<!DOCTYPE svg PUBLIC "-//W3C//DTD SVG 1.0//EN" "http://www.w3.org/TR/2001/REC-SVG-20010904/DTD/svg10.dtd" [
   <!ENTITY ns_imrep "http://ns.adobe.com/ImageReplacement/1.0/">
   ]>
<svg xmlns='http://www.w3.org/2000/svg' xmlns:xlink='http://www.w3.org/1999/xlink' width="132.72" height="127.219" viewBox="638532.99 -144057.15554413898 5929.760000000011 8509.205600000015" overflow="visible" enable-background="new 0 0 132.72 127.219" xml:space="preserve">

<g  fill="green" stroke="black" stroke-width="8.352996515679441">
<path id="reg0" d="M 639291.11 -140390.69 l -33.58 22.44 -33.57 46.97 -31.34 67.09 -41.75 46.62 -29.88 -269.6 136.54 -33.54 -123.11 -215.35 0 -22.36 40.29 -381.5 420.84 -545.67 48.44 -33.88 0.72 -0.58 0.72 -0.6 0.7 -0.61 0.7 -0.63 0.68 -0.63 0.68 -0.65 0.66 -0.66 0.65 -0.67 0.64 -0.68 0.63 -0.69 0.61 -0.71 0.6 -0.71 0.59 -0.72 0.58 -0.73 0.57 -0.75 0.55 -0.75 0.54 -0.76 0.53 -0.77 0.51 -0.78 0.5 -0.79 0.49 -0.8 0.47 -0.81 0.46 -0.81 0.44 -0.82 0.44 -0.83 0.41 -0.83 0.4 -0.85 0.39 -0.85 0.37 -0.85 0.36 -0.87 0.35 -0.86 0.32 -0.88 0.32 -0.88 0.3 -0.88 0.28 -0.89 0.27 -0.9 0.25 -0.9 0.23 -0.9 0.23 -0.91 1.16 -4.93 1.19 -4.93 1.2 -4.93 1.21 -4.93 1.23 -4.92 1.25 -4.91 1.26 -4.91 1.28 -4.91 1.3 -4.91 0.69 -2.56 0.7 -2.56 0.72 -2.56 0.74 -2.55 0.75 -2.54 0.77 -2.55 0.78 -2.53 0.8 -2.54 0.82 -2.52 0.83 -2.53 0.84 -2.51 0.86 -2.52 0.88 -2.5 0.89 -2.5 0.9 -2.5 0.93 -2.49 0.93 -2.49 1.92 -4.95 0.99 -2.46 0.99 -2.47 1.02 -2.45 1.02 -2.45 1.05 -2.44 1.05 -2.44 1.08 -2.43 1.08 -2.42 1.1 -2.41 1.12 -2.41 1.13 -2.41 1.15 -2.39 1.16 -2.39 1.18 -2.38 1.19 -2.38 1.2 -2.36 1.22 -2.36 1.23 -2.35 1.25 -2.35 1.26 -2.33 1.28 -2.33 2.59 -4.64 1.32 -2.3 0.58 -1.47 0.59 -1.47 0.6 -1.47 0.62 -1.45 0.64 -1.45 0.65 -1.44 0.66 -1.44 0.68 -1.43 0.7 -1.42 0.71 -1.42 0.72 -1.4 0.74 -1.4 0.75 -1.4 0.77 -1.38 0.78 -1.38 0.8 -1.36 0.8 -1.36 0.83 -1.36 0.84 -1.34 0.85 -1.33 0.86 -1.33 0.88 -1.32 0.89 -1.3 0.91 -1.3 0.91 -1.29 0.94 -1.28 0.94 -1.27 0.96 -1.26 0.97 -1.25 0.98 -1.24 1 -1.23 1.01 -1.22 1.02 -1.21 1.03 -1.19 1.05 -1.19 1.06 -1.18 1.07 -1.16 1.08 -1.16 1.09 -1.14 1.11 -1.14 1.12 -1.12 1.13 -1.1 1.14 -1.1 1.15 -1.09 1.16 -1.07 1.18 -1.06 1.18 -1.05 1.2 -1.04 1.2 -1.03 1.22 -1.01 1.22 -1 1.24 -0.98 1.25 -0.98 1.26 -0.96 1.26 -0.95 1.28 -0.93 1.29 -0.93 1.29 -0.91 1.31 -0.89 1.31 -0.88 1.32 -0.87 1.33 -0.86 1.35 -0.84 152.4 -80.51 1.61 -1.2 1.61 -1.2 1.63 -1.18 1.63 -1.17 1.65 -1.15 1.65 -1.14 1.66 -1.13 1.68 -1.11 1.68 -1.1 1.69 -1.09 1.7 -1.07 1.7 -1.06 1.72 -1.04 1.72 -1.03 1.74 -1.02 1.74 -1 1.75 -0.98 1.76 -0.98 1.76 -0.95 1.78 -0.95 1.78 -0.93 1.78 -0.91 1.8 -0.9 1.8 -0.89 1.81 -0.87 1.82 -0.85 1.83 -0.84 1.83 -0.83 1.84 -0.81 1.84 -0.8 1.85 -0.78 1.86 -0.76 1.86 -0.75 1.87 -0.74 0.9 0.01 0.9 -0 0.9 -0.03 0.9 -0.04 0.9 -0.06 0.9 -0.08 0.89 -0.09 0.9 -0.11 0.89 -0.12 0.89 -0.15 0.88 -0.16 0.89 -0.17 0.88 -0.2 0.87 -0.21 0.87 -0.22 0.87 -0.24 1.72 -0.54 0.85 -0.29 0.85 -0.31 0.84 -0.32 0.83 -0.34 0.83 -0.35 1.66 -0.72 1.68 -0.71 1.68 -0.68 1.68 -0.68 1.7 -0.65 1.7 -0.64 1.7 -0.62 1.71 -0.6 1.72 -0.58 1.73 -0.57 1.73 -0.55 1.73 -0.54 1.74 -0.51 1.15 -0.33 1.16 -0.31 1.17 -0.3 1.16 -0.27 1.17 -0.27 1.18 -0.24 1.17 -0.24 1.18 -0.21 1.19 -0.2 1.18 -0.18 1.19 -0.17 1.19 -0.15 1.19 -0.13 1.2 -0.12 1.19 -0.1 1.2 -0.08 1.19 -0.07 1.2 -0.05 1.2 -0.03 1.2 -0.02 1.2 -0 1.2 0.01 1.2 0.03 1.2 0.05 1.2 0.07 1.19 0.08 1.2 0.1 1.19 0.11 3.37 0.35 3.37 0.37 3.37 0.39 3.36 0.41 3.37 0.42 3.36 0.44 3.36 0.45 3.35 0.47 3.36 0.49 3.35 0.51 3.35 0.52 3.34 0.54 3.35 0.56 3.34 0.57 3.33 0.59 3.34 0.61 3.33 0.62 3.33 0.64 3.32 0.66 3.32 0.68 3.32 0.69 3.32 0.71 3.31 0.72 3.31 0.74 3.3 0.76 3.3 0.77 3.29 0.8 3.3 0.8 3.28 0.83 16.63 -2.97 16.63 -2.99 16.62 -3.01 16.62 -3.03 16.62 -3.05 16.61 -3.07 1.96 -0.39 1.97 -0.37 1.97 -0.36 1.98 -0.34 1.98 -0.33 1.98 -0.31 1.98 -0.29 1.98 -0.28 1.99 -0.26 1.99 -0.25 1.99 -0.23 1.99 -0.21 2 -0.2 1.99 -0.19 2 -0.16 2 -0.15 2 -0.13 2 -0.12 2 -0.1 2.01 -0.09 2 -0.07 2 -0.05 2.01 -0.04 2 -0.02 2 -0 2.01 0.01 2 0.03 2.01 0.04 2 0.06 2 0.08 2 0.09 2.01 0.11 2 0.12 2 0.14 1.99 0.16 2 0.18 2 0.18 1.99 0.21 1.99 0.22 1.99 0.24 1.99 0.25 1.98 0.27 1.99 0.29 1.98 0.3 1.98 0.32 1.98 0.33 1.97 0.35 1.97 0.37 1.97 0.38 1.96 0.39 1.96 0.42 1.96 0.43 1.95 0.44 1.96 0.46 1.94 0.48 1.95 0.49 1.93 0.51 1.94 0.52 1.93 0.54 1.93 0.55 1.92 0.57 1.91 0.59 1.92 0.6 1.9 0.61 1.91 0.64 1.89 0.64 1.89 0.66 1.89 0.68 1.88 0.69 1.88 0.71 1.87 0.73 1.86 0.73 1.86 0.76 1.85 0.76 1.84 0.79 1.84 0.79 1.83 0.82 1.83 0.82 1.82 0.85 1.81 0.85 1.81 0.87 1.79 0.89 1.79 0.9 1.79 0.91 1.77 0.93 1.77 0.95 1.76 0.95 1.76 0.97 1.74 0.99 1.74 1 1.73 1.01 1.72 1.03 1.71 1.04 1.7 1.06 1.7 1.07 1.69 1.08 1.67 1.1 1.67 1.11 1.66 1.12 1.65 1.14 1.64 1.15 1.64 1.16 1.62 1.17 1.61 1.19 1.61 1.21 1.59 1.21 1.58 1.23 1.58 1.24 1.56 1.25 1.56 1.27 1.54 1.28 1.53 1.29 1.53 1.3 1.51 1.32 1.5 1.32 1.49 1.34 1.48 1.35 1.47 1.37 1.46 1.37 1.44 1.39 1.44 1.4 1.42 1.41 1.42 1.42 1.4 1.43 1.39 1.45 1.38 1.45 1.36 1.47 2.7 2.97 1.33 1.49 1.32 1.51 1.3 1.53 1.3 1.53 1.28 1.54 1.27 1.55 1.25 1.56 1.25 1.57 1.23 1.58 1.22 1.6 1.2 1.6 82.6 -73.47 1.01 -126.8 39.28 9.06 54.4 13.08 108.79 58.37 59.43 -58.37 34.25 39.25 11.08 44.28 45.77 50.66 313.29 175.28 134.31 71.77 46.85 37.44 34.36 12.48 62.47 84.26 190.53 187.22 -9.72 53.64 -12.42 37.24 -8.61 151.82 -8.6 64.93 -32.49 102.83 -90.8 149.91 -106.09 -13.37 -182.55 -26.73 -115.13 300.43 -87.21 227.16 -84.71 -12.08 -208.52 -26.17 -129.61 -12.23 27.41 -34.11 -356.72 -46.42 -176.04 -22.91 -3.81 -0.48 -3.81 -0.47 -3.81 -0.46 -3.82 -0.43 -3.81 -0.43 -3.82 -0.4 -3.82 -0.39 -3.82 -0.37 -3.82 -0.35 -3.83 -0.34 -3.82 -0.32 -3.83 -0.3 -3.83 -0.29 -3.83 -0.27 -3.83 -0.26 -3.83 -0.23 -3.84 -0.22 -3.83 -0.21 -3.83 -0.19 -3.84 -0.17 -3.83 -0.15 -3.84 -0.14 -3.84 -0.12 -3.84 -0.1 -3.84 -0.09 -3.83 -0.07 -3.84 -0.05 -3.84 -0.04 -3.84 -0.02 -3.84 -0 -3.84 0.01 -3.84 0.03 -3.84 0.05 -3.84 0.06 -3.83 0.08 -3.84 0.1 -3.84 0.11 -3.84 0.13 -105.52 13.27 -125.42 54.13 22.38 -78.28 40.29 -107.34 42.54 -165.49 6.72 -44.73 -85.07 -22.36 -157.83 -76.48 -72.73 -42.05 -22.39 2.24 -19.09 8.67 -52.54 -4.2 -98.49 -29.07 -49.25 8.94 -22.39 33.55 -5.45 68.66 -1.8 122.45 -6.18 90.89 0 114.05 0 250.39 "/>
<path id="reg1" d="M 641537.15 -139338.54 l 2.36 167.16 -62.14 -1.06 -24.85 -0 -24.85 -1.91 -31.54 -4.77 -18.46 -6.3 -42.3 -36.23 -20.15 -48.3 -40.29 -102.65 -17.33 -18.02 48.66 -94.28 53.38 -64.4 127.37 -76.95 50.57 81.41 34.5 46.14 34.44 22.25 -0.98 137.96 -68.39 -0.05 "/>
<path id="reg2" d="M 641805.65 -139171.39 l -104.64 0.68 -41.95 0.27 -119.55 -0.94 -2.36 -167.16 68.39 0.05 50.71 0.95 88.83 -0 56.77 0.96 73.72 -5.74 137.56 3.73 64.39 1.16 -2.13 117.34 -8.6 21.01 -29.93 17.58 -31.24 9.15 -21.98 1.91 -26.77 1.91 -36.51 -1.91 -59.73 -0.48 -54.98 -0.47 "/>
<path id="reg3" d="M 641300.46 -138994.73 l -114.18 -78.69 12.8 -44.47 22.16 -149.95 36.36 -122.78 17.33 18.02 40.29 102.65 20.15 48.3 42.3 36.23 18.46 6.3 31.54 4.77 24.85 1.91 24.85 -0 62.14 1.06 119.55 0.94 41.95 -0.27 2.87 233.54 0.29 91.95 -113.74 10.5 -33.64 1.91 -6.69 -20.05 -38.76 -0.8 5.34 -82.79 -125.02 -0.72 7.17 -72.84 -98.37 15.28 " fill-opacity="0.2"/>
<path id="reg4" d="M 641391.66 -138937.17 l 125.02 0.72 -5.34 82.79 -60.83 0.99 -122.34 120.31 -43.01 42.2 -76.56 -65.89 -33.45 -65.88 -14.73 -66.86 10.75 -149.4 15.11 -35.23 114.18 78.69 98.37 -15.28 -7.17 72.84 "/>
<path id="reg5" d="M 642022.66 -138933.38 l -0.89 72.88 0.1 29.79 -90.99 -0.19 -38.23 35.33 -55.11 -54.55 -133.37 4.9 -0.29 -91.95 -2.87 -233.54 104.64 -0.68 54.98 0.47 59.73 0.48 36.51 1.91 26.77 -1.91 21.98 -1.91 31.24 -9.15 -18.05 24.43 10.04 34.58 -6.19 189.11 "/>
<path id="reg6" d="M 641511.34 -138853.66 l 38.76 0.8 6.69 20.05 33.64 -1.91 113.74 -10.5 133.37 -4.9 55.11 54.55 38.23 -35.33 90.99 0.19 -0.77 174.92 10.05 27.38 -142.9 25.14 -178.43 -7.97 -211.21 -20.15 -53.81 -9.17 -75.65 -15 -83.99 -34.6 43.01 -42.2 122.34 -120.31 60.83 -0.99 "/>
<path id="reg7" d="M 642031.15 -138628.41 l 49.74 -20.98 43.73 -13.11 45.91 -13.1 30.61 -8.74 59.03 -6.55 80.35 -6.55 30.61 1.09 133.37 -4.37 45.92 -9.83 41.54 -25.12 60.62 -44.53 62.12 -60.15 32.29 -22.22 122.83 -27.44 117.56 -16.23 76.66 -24.83 29.5 -22.1 54.09 65.8 0 24.02 50.29 12.02 56.85 21.84 113.69 72.08 46.4 42.33 -19.07 28.66 -51.38 50.24 -40.45 37.14 -36.08 41.5 -42.63 43.69 -29.52 33.85 -49.52 46.41 -159.93 103.31 -62.32 43.68 -77.61 45.87 -75.43 53.52 -69.97 50.24 -226.29 209.69 -44.38 47.72 -24.05 48.05 -44.82 41.5 -37.17 19.66 -55.76 19.66 -112.6 46.96 -114.78 54.61 -59.36 33.09 -184.75 92.83 -87.46 19.66 -86.36 10.92 -66.69 19.66 -220.82 60.07 -61.22 7.65 -68.87 -13.11 -45.59 -25.44 -68.87 -34.95 -80.9 -54.61 -267.83 -193.85 -108.23 -86.28 -49.19 -44.78 -43.73 -60.07 -34.22 -66.06 -22.95 -67.71 -62.32 -108.13 -97.62 -115.21 -45.91 -53.52 -40.45 -70.99 -17.49 -48.05 -39.07 -177.29 183.69 -63.32 55.33 129.83 86.63 166.05 88.65 148.94 30.21 -56.55 43.73 -126.05 97.3 129.27 31.23 58.36 96.7 -73.46 106.77 -77.49 115.04 105.67 23.17 -20.13 30.22 -4.02 -59.83 -118.57 108.12 -9.03 37.28 21.96 26.76 8.59 21.98 -7.64 71.68 -65.88 14.34 -15.47 51.61 -47.74 2.99 -98.59 53.81 9.17 211.21 20.15 178.43 7.97 142.9 -25.14 "/>
<path id="reg8" d="M 641390.2 -138494.23 l -14.34 15.47 -71.68 65.88 -21.98 7.64 -26.76 -8.59 -37.28 -21.96 -108.12 9.03 -75.24 -148.37 111.9 -3.26 -29.21 -31.2 27.19 -44.28 -20.14 -33.21 -21.16 -14.09 -44.32 -30.19 39.29 -32.69 68.98 -6.8 -16.6 -52.58 -12.76 -65.84 22.45 0.48 14.73 66.86 33.45 65.88 76.56 65.89 83.99 34.6 75.65 15 -2.99 98.59 -51.61 47.74 "/>
<path id="reg9" d="M 641137.97 -138889.27 l 12.76 65.84 16.6 52.58 -68.98 6.8 -39.29 32.69 44.32 30.19 21.16 14.09 20.14 33.21 -27.19 44.28 29.21 31.2 -111.9 3.26 75.24 148.37 59.83 118.57 -30.22 4.02 -23.17 20.13 -115.04 -105.67 -106.77 77.49 -96.7 73.46 -31.23 -58.36 -97.3 -129.27 39.88 -120 32.24 -26.16 -0.03 -1.37 -0.01 -1.38 0.01 -1.37 0.02 -1.38 0.04 -1.37 0.06 -1.38 0.07 -1.37 0.09 -1.37 0.1 -1.37 0.13 -1.37 0.13 -1.37 0.16 -1.36 0.17 -1.37 0.18 -1.36 0.21 -1.36 0.21 -1.35 0.24 -1.36 0.25 -1.35 0.27 -1.35 0.28 -1.34 0.3 -1.35 0.31 -1.33 0.33 -1.34 0.35 -1.33 0.36 -1.32 0.38 -1.33 0.39 -1.31 0.41 -1.31 0.43 -1.31 0.44 -1.3 0.45 -1.3 0.47 -1.29 0.49 -1.29 0.5 -1.28 0.52 -1.27 0.53 -1.27 0.55 -1.26 0.56 -1.25 0.58 -1.25 0.59 -1.24 0.61 -1.23 0.62 -1.23 0.63 -1.22 0.65 -1.21 0.67 -1.2 0.67 -1.2 0.7 -1.19 0.7 -1.18 0.72 -1.17 0.74 -1.16 0.75 -1.15 0.76 -1.14 0.77 -1.14 0.79 -1.12 0.81 -1.12 0.81 -1.11 0.83 -1.09 0.84 -1.09 0.86 -1.08 0.86 -1.06 0.88 -1.06 0.9 -1.04 0.9 -1.04 0.92 -1.02 0.93 -1.02 0.94 -1 0.95 -0.99 0.96 -0.98 0.98 -0.97 0.99 -0.95 1 -0.95 1.01 -0.93 1.02 -0.92 1.03 -0.91 1.04 -0.89 1.05 -0.89 1.07 -0.87 1.07 -0.85 1.09 -0.85 1.09 -0.83 1.1 -0.82 1.12 -0.81 15.11 -15.09 35.25 -8.05 40.3 -7.05 22.16 -22.14 2.01 -22.14 -39.28 -44.28 -25.19 -47.3 -2.01 -51.32 -9.53 -90.37 -5.49 -29.21 21.26 -4.81 20.15 -1.01 22.16 4.03 35.26 -8.05 17.12 -20.13 8.06 -28.18 9.07 -42.26 112.81 -65.71 41.3 34.51 23.17 37.24 65.48 -17.11 -12.8 44.47 -15.11 35.23 -10.75 149.4 -22.45 -0.48 "/>
<path id="reg10" d="M 640187.79 -139325.92 l -171.3 15.23 -37.27 -137.87 -20.89 -220.88 -15.38 -148.54 28.03 8.92 78.62 25.05 153.84 49.02 97.54 36.89 36.8 13.91 30.59 11.57 14.35 5.43 212.98 -11.93 205.69 -97.62 48.24 -32.12 54.88 -149.11 16.45 -53.63 68.65 -172.87 42.81 -107.81 44.67 -134.94 216.37 4.11 23.82 249.15 9.55 62.07 13.38 49.65 28.68 62.06 18.16 34.75 40.14 49.66 106.09 83.07 12.42 41.25 5.74 36.28 -4.49 30.51 -0.51 2.5 -0.53 2.49 -0.54 2.49 -0.55 2.48 -0.58 2.49 -0.58 2.47 -0.61 2.48 -0.62 2.47 -0.63 2.47 -0.65 2.46 -0.67 2.46 -0.68 2.45 -0.7 2.45 -0.71 2.45 -0.73 2.44 -0.75 2.44 -0.76 2.43 -0.77 2.43 -0.79 2.42 -0.81 2.42 -0.82 2.41 -0.83 2.4 -0.85 2.41 -0.87 2.39 -0.88 2.39 -0.9 2.39 -0.91 2.37 -0.93 2.38 -0.94 2.36 -38.84 27.72 -127.37 76.95 -53.38 64.4 -48.66 94.28 -72.52 -23.14 -88.65 -17.11 -133.97 -29.18 -203.45 -45.67 17.24 18.29 -10.65 114.16 -52.28 3.75 -112.79 8.1 -73.36 5.27 -84.38 11.03 -255 19.2 "/>
<path id="reg11" d="M 638671.71 -139627.47 l -13.62 31.11 -117.22 68.02 -7.88 -102.43 2.62 -128.69 18.4 -18.39 21.04 -7.88 92.01 68.29 -11.36 -59.32 -20.78 -116.36 159.12 -4.37 -1.64 -132.58 139.17 -4.91 1.1 -330.61 156.39 95.06 28.98 106.23 0.22 0.67 0.23 0.66 0.25 0.66 0.27 0.65 0.28 0.65 0.3 0.64 0.31 0.63 0.32 0.62 0.34 0.62 0.36 0.61 0.37 0.6 0.38 0.59 0.39 0.58 0.41 0.57 0.43 0.57 0.43 0.55 0.45 0.54 0.46 0.53 0.48 0.52 0.48 0.51 0.5 0.5 0.51 0.49 0.52 0.47 0.53 0.46 0.54 0.45 0.55 0.44 0.56 0.42 0.58 0.41 0.58 0.4 0.59 0.38 0.6 0.37 0.61 0.36 0.61 0.34 0.62 0.33 0.64 0.31 0.63 0.29 0.65 0.29 0.65 0.26 0.66 0.25 0.66 0.24 0.67 0.22 0.67 0.21 0.68 0.19 0.68 0.17 0.69 0.16 0.69 0.14 0.69 0.12 0.7 0.11 0.69 0.09 0.7 0.08 0.71 0.06 0.7 0.04 0.7 0.03 0.7 0.01 0.71 -0.01 0.7 -0.02 0.71 -0.04 0.7 -0.05 0.7 -0.07 0.7 -0.09 0.69 -0.11 20.82 -7.25 -21.52 -56.69 41.75 -46.62 31.34 -67.09 33.57 -46.97 33.58 -22.44 0 -250.39 0 -114.05 6.18 -90.89 1.8 -122.45 5.45 -68.66 22.39 -33.55 49.25 -8.94 98.49 29.07 52.54 4.2 19.09 -8.67 22.39 -2.24 72.73 42.05 157.83 76.48 85.07 22.36 -6.72 44.73 -42.54 165.49 -40.29 107.34 -22.38 78.28 -110.63 72.23 -46.07 32.87 -62.67 65.08 -109.69 140.88 -23.8 44.79 -18.73 33.49 -37.53 108.54 -13.94 40.3 -35.83 172.27 -55.52 432.59 -20.59 -2.34 -29.1 -93.92 42.53 -42.49 15.67 -89.46 -11.19 -73.8 -11.88 -73.8 -55.09 43.47 -130.28 62.69 -163.5 48.62 -222.84 -28.95 "/>
<path id="reg12" d="M 640364.89 -138688.61 l -183.69 63.32 -125.42 -199.44 -30.22 -66.42 -65.68 -200.27 12.29 -71.45 -10.21 -136.74 54.53 -11.08 171.3 -15.23 255 -19.2 84.38 -11.03 73.36 -5.27 112.79 -8.1 52.28 -3.75 10.65 -114.16 -17.24 -18.29 203.45 45.67 133.97 29.18 88.65 17.11 72.52 23.14 -36.36 122.78 -22.16 149.95 -65.48 17.11 -23.17 -37.24 -41.3 -34.51 -112.81 65.71 -9.07 42.26 -8.06 28.18 -17.12 20.13 -35.26 8.05 -22.16 -4.03 -20.15 1.01 -21.26 4.81 5.49 29.21 9.53 90.37 2.01 51.32 25.19 47.3 39.28 44.28 -2.01 22.14 -22.16 22.14 -40.3 7.05 -35.25 8.05 -15.11 15.09 -1.12 0.81 -1.1 0.82 -1.09 0.83 -1.09 0.85 -1.07 0.85 -1.07 0.87 -1.05 0.89 -1.04 0.89 -1.03 0.91 -1.02 0.92 -1.01 0.93 -1 0.95 -0.99 0.95 -0.98 0.97 -0.96 0.98 -0.95 0.99 -0.94 1 -0.93 1.02 -0.92 1.02 -0.9 1.04 -0.9 1.04 -0.88 1.06 -0.86 1.06 -0.86 1.08 -0.84 1.09 -0.83 1.09 -0.81 1.11 -0.81 1.12 -0.79 1.12 -0.77 1.14 -0.76 1.14 -0.75 1.15 -0.74 1.16 -0.72 1.17 -0.7 1.18 -0.7 1.19 -0.67 1.2 -0.67 1.2 -0.65 1.21 -0.63 1.22 -0.62 1.23 -0.61 1.23 -0.59 1.24 -0.58 1.25 -0.56 1.25 -0.55 1.26 -0.53 1.27 -0.52 1.27 -0.5 1.28 -0.49 1.29 -0.47 1.29 -0.45 1.3 -0.44 1.3 -0.43 1.31 -0.41 1.31 -0.39 1.31 -0.38 1.33 -0.36 1.32 -0.35 1.33 -0.33 1.34 -0.31 1.33 -0.3 1.35 -0.28 1.34 -0.27 1.35 -0.25 1.35 -0.24 1.36 -0.21 1.35 -0.21 1.36 -0.18 1.36 -0.17 1.37 -0.16 1.36 -0.13 1.37 -0.13 1.37 -0.1 1.37 -0.09 1.37 -0.07 1.37 -0.06 1.38 -0.04 1.37 -0.02 1.38 -0.01 1.37 0.01 1.38 0.03 1.37 -32.24 26.16 -39.88 120 -43.73 126.05 -30.21 56.55 -88.65 -148.94 -86.63 -166.05 -55.33 -129.83 "/>
<path id="reg13" d="M 640595.7 -139679.12 l -212.98 11.93 -14.35 -5.43 -30.59 -11.57 -36.8 -13.91 -97.54 -36.89 -153.84 -49.02 -78.62 -25.05 -28.03 -8.92 -24.42 -7.77 89 -154.39 19.04 -76.53 -15.11 -53.34 41.85 -49.67 50.82 -92.71 82.82 -138.66 113.09 58.57 186.34 93.24 184.55 122.96 233.58 158.31 -54.88 149.11 -48.24 32.12 -205.69 97.62 "/>
<path id="reg14" d="M 639661.76 -140448.3 l 110.63 -72.23 125.42 -54.13 105.52 -13.27 3.84 -0.13 3.84 -0.11 3.84 -0.1 3.83 -0.08 3.84 -0.06 3.84 -0.05 3.84 -0.03 3.84 -0.01 3.84 -0 3.84 0.02 3.84 0.04 3.84 0.05 3.83 0.07 3.84 0.09 3.84 0.1 3.84 0.12 3.84 0.14 3.83 0.15 3.84 0.17 3.83 0.19 3.83 0.21 3.84 0.22 3.83 0.23 3.83 0.26 3.83 0.27 3.83 0.29 3.83 0.3 3.82 0.32 3.83 0.34 3.82 0.35 3.82 0.37 3.82 0.39 3.82 0.4 3.81 0.43 3.82 0.43 3.81 0.46 3.81 0.47 3.81 0.48 176.04 22.91 356.72 46.42 -27.41 34.11 129.61 12.23 208.52 26.17 84.71 12.08 -44.67 134.94 -42.81 107.81 -68.65 172.87 -16.45 53.63 -233.58 -158.31 -184.55 -122.96 -186.34 -93.24 -113.09 -58.57 -82.82 138.66 -50.82 92.71 -78.12 -47.43 -19.73 -9.22 -59.51 -36.06 -76 -47.96 -101.29 -25.62 -98.49 -0 -15.67 -4.26 -51.48 -20.12 62.67 -65.08 46.07 -32.87 "/>
<path id="reg15" d="M 639777.76 -139846.86 l 8.87 -43.32 31.42 8.1 100.48 56.33 24.42 7.77 15.38 148.54 20.89 220.88 37.27 137.87 -54.53 11.08 10.21 136.74 -12.29 71.45 -130.84 7.63 22.05 121.19 -52.92 6.75 -38.54 408.46 -1.01 333.79 -75.75 20.43 -32.23 26.16 -76.56 32.21 -49.36 2.01 -17.12 29.18 -68.5 29.19 -45.33 17.1 -248.16 -184.91 156.69 -205.74 49.25 -91.69 22.38 -84.99 2.36 -2.12 2.34 -2.13 2.33 -2.15 2.32 -2.16 2.3 -2.17 2.3 -2.18 2.29 -2.2 2.27 -2.2 2.26 -2.22 2.25 -2.23 2.24 -2.24 2.23 -2.25 2.22 -2.27 2.21 -2.27 2.19 -2.29 2.18 -2.29 2.17 -2.31 2.16 -2.32 2.15 -2.33 2.14 -2.34 2.12 -2.35 2.11 -2.36 2.1 -2.38 2.09 -2.38 2.07 -2.39 2.06 -2.41 2.05 -2.41 2.04 -2.43 2.03 -2.44 2.01 -2.44 2 -2.46 1.99 -2.47 1.98 -2.47 1.96 -2.49 1.95 -2.5 1.94 -2.5 1.92 -2.52 1.91 -2.53 1.9 -2.53 1.89 -2.55 1.87 -2.55 1.86 -2.57 1.85 -2.57 1.83 -2.58 1.83 -2.6 3.6 -5.21 1.78 -2.62 1.77 -2.63 1.75 -2.64 1.74 -2.65 1.73 -2.65 1.71 -2.67 1.7 -2.67 1.69 -2.68 1.67 -2.69 3.3 -5.41 1.64 -2.72 1.61 -2.72 1.61 -2.73 1.59 -2.74 1.57 -2.75 1.56 -2.76 1.55 -2.76 1.54 -2.78 1.51 -2.78 1.51 -2.78 1.49 -2.8 1.48 -2.8 1.46 -2.81 1.45 -2.82 1.43 -2.83 1.42 -2.83 1.41 -2.84 1.39 -2.85 1.37 -2.85 1.36 -2.86 1.35 -2.87 1.33 -2.87 1.32 -2.89 1.3 -2.88 1.29 -2.9 1.27 -2.9 1.26 -2.91 1.25 -2.91 1.22 -2.92 1.22 -2.93 1.2 -2.93 1.18 -2.94 1.17 -2.94 1.15 -2.95 1.14 -2.96 1.13 -2.96 1.11 -2.97 1.09 -2.97 1.08 -2.98 1.06 -2.99 1.05 -2.99 1.03 -2.99 1.02 -3 1 -3.01 0.99 -3.01 0.97 -3.02 0.96 -3.02 0.94 -3.02 0.92 -3.03 0.91 -3.04 0.9 -3.04 0.88 -3.04 0.86 -3.05 0.85 -3.05 0.83 -3.06 0.82 -3.06 0.8 -3.06 0.78 -3.07 0.77 -3.08 0.76 -3.07 0.74 -3.09 0.72 -3.08 0.71 -3.09 0.69 -3.09 0.67 -3.1 0.66 -3.09 0.65 -3.11 0.63 -3.1 0.61 -3.11 0.6 -3.11 0.58 -3.12 0.56 -3.11 0.55 -3.12 0.53 -3.13 0.52 -3.12 0.5 -3.13 0.49 -3.13 0.21 -1.46 0.2 -1.47 0.18 -1.46 0.17 -1.47 0.15 -1.47 0.14 -1.47 0.11 -1.47 0.11 -1.47 0.08 -1.47 0.08 -1.48 0.05 -1.47 0.04 -1.48 0.02 -1.48 0.01 -1.47 -0.01 -1.48 -0.03 -1.48 -0.04 -1.47 -0.06 -1.48 -0.07 -1.47 -0.09 -1.47 -0.1 -1.48 -0.12 -1.47 -0.14 -1.47 -0.16 -1.47 -0.17 -1.46 -0.18 -1.47 -0.2 -1.46 -0.22 -1.46 -0.23 -1.46 -0.25 -1.45 -0.26 -1.46 -0.29 -1.45 -0.29 -1.44 -0.31 -1.44 -0.33 -1.44 -0.34 -1.44 -0.36 -1.43 -0.38 -1.43 -0.39 -1.42 -0.4 -1.42 -0.42 -1.42 -0.44 -1.41 -0.45 -1.41 -0.46 -1.4 -0.49 -1.39 -0.49 -1.39 -0.51 -1.39 -0.53 -1.38 -0.54 -1.37 -0.56 -1.37 -0.57 -1.36 -0.59 -1.35 -0.6 -1.35 -0.61 -1.34 -0.63 -1.34 -0.65 -1.33 -0.66 -1.32 -0.67 -1.31 -0.69 -1.31 -0.7 -1.3 -0.71 -1.29 -0.73 -1.28 -0.75 -1.28 -0.76 -1.26 -0.77 -1.26 -0.78 -1.25 -0.8 -1.25 -0.81 -1.23 -0.83 -1.22 -0.83 -1.22 -0.86 -1.2 -0.86 -1.2 -1.55 -2.14 -1.54 -2.14 -1.52 -2.15 -1.51 -2.17 -1.49 -2.17 -1.48 -2.18 -1.47 -2.2 -1.45 -2.2 -1.44 -2.21 -1.42 -2.22 -1.41 -2.23 -1.4 -2.24 -1.38 -2.24 -1.37 -2.26 -1.35 -2.26 -1.34 -2.28 -1.32 -2.28 -1.31 -2.29 -1.29 -2.3 -1.28 -2.3 -1.27 -2.32 -1.25 -2.32 -1.23 -2.33 -1.22 -2.34 -1.21 -2.35 -1.19 -2.35 -1.17 -2.36 -1.16 -2.37 -1.14 -2.38 -1.13 -2.38 -1.73 -1.19 -1.71 -1.2 -1.7 -1.21 -1.7 -1.22 -1.68 -1.24 -1.68 -1.25 -1.66 -1.27 -1.66 -1.28 -1.64 -1.29 -1.64 -1.3 -1.62 -1.32 -1.62 -1.32 -1.6 -1.35 -1.59 -1.35 -1.59 -1.36 -1.57 -1.38 -1.56 -1.39 -1.55 -1.41 -1.54 -1.41 -1.53 -1.43 -1.52 -1.43 -1.51 -1.45 -1.49 -1.47 -1.48 -1.47 -1.48 -1.48 -1.46 -1.5 -1.45 -1.51 -1.43 -1.52 -1.43 -1.53 -1.41 -1.54 -1.4 -1.55 -1.39 -1.56 -1.38 -1.58 -1.36 -1.58 -1.36 -1.59 -1.34 -1.61 -1.32 -1.61 -1.32 -1.63 -1.3 -1.64 -1.29 -1.64 -1.28 -1.66 -1.26 -1.66 -1.25 -1.68 -1.24 -1.69 -1.22 -1.69 -1.21 -1.71 -1.2 -1.71 -1.18 -1.72 -1.17 -1.74 -1.16 -1.74 -1.15 -1.75 -1.13 -1.76 -2.22 -3.54 -1.08 -1.79 -1.08 -1.79 -1.06 -1.8 -1.05 -1.81 -1.03 -1.82 -1.02 -1.82 -1 -1.84 -0.99 -1.84 -0.98 -1.85 -0.96 -1.86 -0.94 -1.86 -0.94 -1.87 -0.91 -1.88 -0.91 -1.89 -0.89 -1.89 -0.87 -1.9 -0.86 -1.91 -0.84 -1.91 -0.83 -1.92 -0.81 -1.93 -0.8 -1.93 -0.79 -1.94 -0.77 -1.94 -0.75 -1.95 -0.74 -1.96 -0.72 -1.96 -0.71 -1.97 -0.69 -1.97 -0.68 -1.98 -0.66 -1.98 -0.65 -1.99 -0.63 -1.99 -0.61 -2 -0.6 -2 -0.58 -2.01 -0.57 -2.01 -0.56 -2.02 -0.53 -2.02 -0.52 -2.03 -0.51 -2.03 -0.49 -2.03 -0.47 -2.03 -0.46 -2.04 -0.44 -2.05 -0.43 -2.05 -0.41 -2.05 -0.39 -2.05 -0.38 -2.06 -0.36 -2.05 -0.35 -2.07 -0.33 -2.06 -0.31 -2.07 -0.3 -2.07 -0.28 -2.07 -0.27 -2.07 -0.25 -2.08 -0.23 -2.08 -0.22 -2.08 -0.2 -2.08 -0.19 -2.08 -0.16 -2.08 19.88 -185.77 22.18 -107.33 33.87 -63 74.33 -52.3 114.24 -38.62 65 -21.23 56.41 -15.1 "/>
<path id="reg16" d="M 639419.53 -140164.68 l 23.8 -44.79 109.69 -140.88 51.48 20.12 15.67 4.26 98.49 -0 101.29 25.62 76 47.96 59.51 36.06 19.73 9.22 78.12 47.43 -41.85 49.67 15.11 53.34 -19.04 76.53 -89 154.39 -100.48 -56.33 -31.42 -8.1 -8.87 43.32 -56.41 15.1 -65 21.23 -114.24 38.62 -74.33 52.3 -33.87 63 -22.18 107.33 -19.88 185.77 -55.97 -5.13 -77.9 -8.85 55.52 -432.59 35.83 -172.27 13.94 -40.3 37.53 -108.54 18.73 -33.49 " fill="green" stroke="black" stroke-width="8.352996515679441" fill-opacity="0.4"/>
<path id="reg17" d="M 642499.68 -140067.08 l 21.93 312.47 -439.94 23.18 -420.55 22.62 -78.97 -11.66 -35.2 -4.19 4.49 -30.51 -5.74 -36.28 -12.42 -41.25 -106.09 -83.07 -40.14 -49.66 -18.16 -34.75 -28.68 -62.06 -13.38 -49.65 -9.55 -62.07 -23.82 -249.15 -216.37 -4.11 87.21 -227.16 115.13 -300.43 182.55 26.73 106.09 13.37 207.21 13.74 142.41 -11.45 219.54 -16.24 11.47 47.75 38.23 48.69 172.99 28.65 34.41 -17.19 11.47 20.05 92.71 2.87 25.8 18.14 201.96 102.17 108.19 97.68 91.08 126.23 43.01 90.04 -0.95 21 46.07 110 28.67 5.73 5.73 -37.24 28.68 35.33 71.68 40.1 87.93 17.19 87.93 8.59 23.84 8.11 -767.43 -90.8 -36.91 -5.19 -13.55 23.33 -0.99 74.48 2.9 84.02 -32.47 1.85 " fill="green" stroke="black" stroke-width="8.352996515679441" fill-opacity="0.2"/>
<path id="reg18" d="M 642543.79 -140250.76 l 36.91 5.19 767.43 90.8 30.64 10.41 -34.8 216.75 368.41 -24.02 183.66 -20.75 171.63 -16.39 -52.34 154.73 -291.58 16.19 -149.94 9.67 -317.69 16.63 54.4 226.09 -5.47 122.32 -5.46 37.25 -111.44 -52.7 -138.16 -70.47 -106.95 -54.06 -69.38 143.09 -75.42 62.01 -29.63 -35.33 -37.28 -30.55 -32.49 -18.14 -32.12 -9.74 -45.65 -5.12 -98.47 1.98 -46.46 -0.21 -396.186551 -2.570042 0.006551 2.870042 -67.85 0.26 -133.7 0.51 -46.17 0.18 -87.16 1.16 -56.21 0.67 -36.5 -1.83 -45.85 -2.57 -34.44 -22.25 -34.5 -46.14 -50.57 -81.41 38.84 -27.72 0.94 -2.36 0.93 -2.38 0.91 -2.37 0.9 -2.39 0.88 -2.39 0.87 -2.39 0.85 -2.41 0.83 -2.4 0.82 -2.41 0.81 -2.42 0.79 -2.42 0.77 -2.43 0.76 -2.43 0.75 -2.44 0.73 -2.44 0.71 -2.45 0.7 -2.45 0.68 -2.45 0.67 -2.46 0.65 -2.46 0.63 -2.47 0.62 -2.47 0.61 -2.48 0.58 -2.47 0.58 -2.49 0.55 -2.48 0.54 -2.49 0.53 -2.49 0.51 -2.5 35.2 4.19 78.97 11.66 420.55 -22.62 439.94 -23.18 -21.93 -312.47 32.47 -1.85 -2.9 -84.02 0.99 -74.48 13.55 -23.33 " fill="green" stroke="black" stroke-width="8.352996515679441" fill-opacity="0.4"/>
<path id="reg19" d="M 642490.48 -139247.2 l -2.87 39.52 -14.34 33.42 -8.6 21.97 -0.89 40.16 -127.18 -1.97 -73.12 0.95 -136.19 -6.97 -50.18 -2.57 -23.89 3.82 -24.37 -3.62 -10.04 -34.58 18.05 -24.43 29.93 -17.58 8.6 -21.01 2.13 -117.34 2.44 -137.4 -0.006551 -2.870042 396.186551 2.570042 0 88.55 11.47 41.03 0.96 21.96 1.91 76.39 " fill="green" stroke="black" stroke-width="8.352996515679441" fill-opacity="0.8"/>
<path id="reg20" d="M 642463.78 -139112.13 l 0.89 -40.16 8.6 -21.97 14.34 -33.42 2.87 -39.52 -1.91 -76.39 -0.96 -21.96 -11.47 -41.03 0 -88.55 46.46 0.21 98.47 -1.98 45.65 5.12 32.12 9.74 32.49 18.14 37.28 30.55 29.63 35.33 34.4 54.81 8.61 39.14 3.82 26.74 1.91 27.69 -1.7 39.16 -3.08 27.68 -9.56 24.83 -16.24 13.37 -33.46 18.14 -21.98 -0 -57.34 -1.91 -36.72 1.51 -203.12 -5.27 " fill="green" stroke="black" stroke-width="8.352996515679441" fill-opacity="1"/>
<path id="reg21" d="M 642127.29 -139120.12 l 136.19 6.97 73.12 -0.95 127.18 1.97 203.12 5.27 -8.61 155.4 -71.3 1.13 -59.62 20.8 -259.93 -2.88 -140.15 -1.9 -104.63 0.93 6.19 -189.11 24.37 3.62 23.89 -3.82 50.18 2.57 " fill="green" stroke="black" stroke-width="8.352996515679441" fill-opacity="0.8"/>
<path id="reg22" d="M 642652.58 -138780.2 l -60.62 44.53 -41.54 25.12 -45.92 9.83 -133.37 4.37 -30.61 -1.09 -80.35 6.55 -59.03 6.55 -30.61 8.74 -45.91 13.1 -43.73 13.11 -49.74 20.98 -10.05 -27.38 0.77 -174.92 -0.1 -29.79 0.89 -72.88 104.63 -0.93 140.15 1.9 259.93 2.88 59.62 -20.8 71.3 -1.13 8.61 -155.4 36.72 -1.51 57.34 1.91 21.98 -0 33.46 -18.14 16.24 -13.37 9.56 -24.83 3.08 -27.68 1.7 -39.16 -1.91 -27.69 -3.82 -26.74 -8.61 -39.14 -34.4 -54.81 75.42 -62.01 69.38 -143.09 106.95 54.06 138.16 70.47 111.44 52.7 5.46 -37.25 5.47 -122.32 -54.4 -226.09 317.69 -16.63 149.94 -9.67 291.58 -16.19 447.42 -19.85 -80.9 171.46 -73.24 72.84 -36.08 29.49 -64.5 48.05 -31.7 61.16 -68.32 132.69 -81.99 112.49 -165.08 156.18 -52.47 51.87 -160.7 96.11 -80.9 61.16 -57.94 44.78 -94.07 100.53 -46.4 -42.33 -113.69 -72.08 -56.85 -21.84 -50.29 -12.02 0 -24.02 -54.09 -65.8 -29.5 22.1 -76.66 24.83 -117.56 16.23 -122.83 27.44 -32.29 22.22 -62.12 60.15 " fill="green" stroke="black" stroke-width="8.352996515679441" fill-opacity="0.8"/>
<path id="reg23" d="M 642077.52 -139337.43 l -64.39 -1.16 -137.56 -3.73 -73.72 5.74 -56.77 -0.96 -88.83 -0 -50.71 -0.95 0.98 -137.96 45.85 2.57 36.5 1.83 56.21 -0.67 87.16 -1.16 46.17 -0.18 133.7 -0.51 67.85 -0.26 -2.44 137.4 " fill="green" stroke="black" stroke-width="8.352996515679441" fill-opacity="0.8"/>
</g>
</svg>